<mxfile host="Electron" agent="Mozilla/5.0 (Macintosh; Intel Mac OS X 10_15_7) AppleWebKit/537.36 (KHTML, like Gecko) draw.io/28.0.6 Chrome/138.0.7204.100 Electron/37.2.3 Safari/537.36" version="28.0.6">
  <diagram id="ga4_gtm_parallel" name="Parallel">
    <mxGraphModel dx="1220" dy="831" grid="1" gridSize="10" guides="1" tooltips="1" connect="1" arrows="1" fold="1" page="1" pageScale="1" pageWidth="827" pageHeight="1169" math="0" shadow="0">
      <root>
        <mxCell id="0" />
        <mxCell id="1" parent="0" />
        <mxCell id="account2" value="GA4 Account" style="rounded=1;fillColor=#dae8fc;strokeColor=#6c8ebf;" parent="1" vertex="1">
          <mxGeometry x="30" y="20" width="140" height="50" as="geometry" />
        </mxCell>
        <mxCell id="property2" value="Property" style="rounded=1;fillColor=#d5e8d4;strokeColor=#82b366;" parent="1" vertex="1">
          <mxGeometry x="40" y="100" width="120" height="50" as="geometry" />
        </mxCell>
        <mxCell id="stream2" value="Stream" style="rounded=1;fillColor=#fff2cc;strokeColor=#d6b656;" parent="1" vertex="1">
          <mxGeometry x="50" y="180" width="100" height="50" as="geometry" />
        </mxCell>
        <mxCell id="event2" value="Events" style="ellipse;fillColor=#f8cecc;strokeColor=#b85450;" parent="1" vertex="1">
          <mxGeometry x="60" y="260" width="80" height="40" as="geometry" />
        </mxCell>
        <mxCell id="gtm2" value="GTM Container" style="shape=datastore;fillColor=#e1d5e7;strokeColor=#9673a6;" parent="1" vertex="1">
          <mxGeometry x="300" y="100" width="160" height="60" as="geometry" />
        </mxCell>
        <mxCell id="tags" value="Tags" style="ellipse;fillColor=#fff2cc;strokeColor=#d6b656;" parent="1" vertex="1">
          <mxGeometry x="300" y="200" width="100" height="40" as="geometry" />
        </mxCell>
        <mxCell id="triggers" value="Triggers" style="ellipse;fillColor=#fff2cc;strokeColor=#d6b656;" parent="1" vertex="1">
          <mxGeometry x="420" y="200" width="100" height="40" as="geometry" />
        </mxCell>
        <mxCell id="edgep1" parent="1" source="account2" target="property2" edge="1">
          <mxGeometry relative="1" as="geometry" />
        </mxCell>
        <mxCell id="edgep2" parent="1" source="property2" target="stream2" edge="1">
          <mxGeometry relative="1" as="geometry" />
        </mxCell>
        <mxCell id="edgep3" parent="1" source="stream2" target="event2" edge="1">
          <mxGeometry relative="1" as="geometry" />
        </mxCell>
        <mxCell id="edgep4" parent="1" source="stream2" target="gtm2" edge="1">
          <mxGeometry relative="1" as="geometry" />
        </mxCell>
        <mxCell id="edgep5" parent="1" source="gtm2" target="tags" edge="1">
          <mxGeometry relative="1" as="geometry" />
        </mxCell>
        <mxCell id="edgep6" parent="1" source="gtm2" target="triggers" edge="1">
          <mxGeometry relative="1" as="geometry" />
        </mxCell>
      </root>
    </mxGraphModel>
  </diagram>
</mxfile>
